<svg width="260" height="48" viewBox="0 0 260 48" fill="none" xmlns="http://www.w3.org/2000/svg">
<path fill-rule="evenodd" clip-rule="evenodd" d="M23.476 12.4354L28.7986 15.722C29.0842 15.8984 29.2581 16.2102 29.2581 16.5459V31.5605C29.2581 31.901 29.0793 32.2164 28.7872 32.3913L23.4647 35.5777C23.006 35.8523 22.4118 35.7029 22.1373 35.244C22.0475 35.0938 22 34.922 22 34.7469V13.2593C22 12.7246 22.4333 12.2911 22.9677 12.2911C23.1473 12.2911 23.3233 12.3411 23.476 12.4354Z" fill="#9155FD"/>
<path opacity="0.077704" fill-rule="evenodd" clip-rule="evenodd" d="M22 20.1165L29.2581 24.2802V28.3621L22 20.1165Z" fill="black"/>
<path opacity="0.077704" fill-rule="evenodd" clip-rule="evenodd" d="M22 20.1165L29.2581 24.1742V26.6678L22 20.1165Z" fill="black"/>
<path fill-rule="evenodd" clip-rule="evenodd" d="M50.5252 12.4316L45.2026 15.7072C44.9163 15.8834 44.7419 16.1956 44.7419 16.5318V31.5605C44.7419 31.901 44.9207 32.2164 45.2128 32.3913L50.5353 35.5777C50.994 35.8523 51.5882 35.7029 51.8627 35.244C51.9525 35.0938 52 34.922 52 34.7469V13.2562C52 12.7215 51.5667 12.2881 51.0323 12.2881C50.8532 12.2881 50.6777 12.3377 50.5252 12.4316Z" fill="#9155FD"/>
<path opacity="0.077704" fill-rule="evenodd" clip-rule="evenodd" d="M52 20.1165L44.7419 24.2714V28.4853L52 20.1165Z" fill="black"/>
<path opacity="0.077704" fill-rule="evenodd" clip-rule="evenodd" d="M52 20.1165L44.7419 24.1706V26.791L52 20.1165Z" fill="black"/>
<path fill-rule="evenodd" clip-rule="evenodd" d="M23.4734 12.4275L37 20.7217V28.7091L22 20.1143V13.2529C22 12.7182 22.4333 12.2848 22.9677 12.2848C23.1462 12.2848 23.3213 12.3341 23.4734 12.4275Z" fill="#9155FD"/>
<path fill-rule="evenodd" clip-rule="evenodd" d="M23.4734 12.4275L37 20.7217V28.7091L22 20.1143V13.2529C22 12.7182 22.4333 12.2848 22.9677 12.2848C23.1462 12.2848 23.3213 12.3341 23.4734 12.4275Z" fill="white" fill-opacity="0.15"/>
<path fill-rule="evenodd" clip-rule="evenodd" d="M50.5266 12.4275L37 20.7217V28.7091L52 20.1143V13.2529C52 12.7182 51.5667 12.2848 51.0323 12.2848C50.8538 12.2848 50.6787 12.3341 50.5266 12.4275Z" fill="#9155FD"/>
<path fill-rule="evenodd" clip-rule="evenodd" d="M50.5266 12.4275L37 20.7217V28.7091L52 20.1143V13.2529C52 12.7182 51.5667 12.2848 51.0323 12.2848C50.8538 12.2848 50.6787 12.3341 50.5266 12.4275Z" fill="white" fill-opacity="0.3"/>
<path d="M65.2642 16.4545H69.0568L73.0625 26.2273H73.233L77.2386 16.4545H81.0312V31H78.0483V21.5327H77.9276L74.1634 30.929H72.1321L68.3679 21.4972H68.2472V31H65.2642V16.4545ZM86.2221 31H82.9266L87.9479 16.4545H91.911L96.9252 31H93.6298L89.9863 19.7784H89.8727L86.2221 31ZM86.0161 25.2827H93.8002V27.6832H86.0161V25.2827ZM96.4946 18.9901V16.4545H108.441V18.9901H103.987V31H100.948V18.9901H96.4946ZM110.558 31V16.4545H120.359V18.9901H113.633V22.456H119.855V24.9915H113.633V28.4645H120.388V31H110.558ZM122.954 31V16.4545H128.693C129.791 16.4545 130.729 16.651 131.505 17.044C132.286 17.4323 132.881 17.9839 133.288 18.6989C133.7 19.4091 133.906 20.2448 133.906 21.206C133.906 22.1719 133.697 23.0028 133.281 23.6989C132.864 24.3902 132.26 24.9205 131.47 25.2898C130.684 25.6591 129.732 25.8438 128.615 25.8438H124.772V23.3722H128.117C128.705 23.3722 129.192 23.2917 129.58 23.1307C129.969 22.9697 130.258 22.7282 130.447 22.4062C130.641 22.0843 130.738 21.6842 130.738 21.206C130.738 20.723 130.641 20.3158 130.447 19.9844C130.258 19.6529 129.966 19.402 129.573 19.2315C129.185 19.0563 128.695 18.9688 128.103 18.9688H126.029V31H122.954ZM130.809 24.3807L134.424 31H131.029L127.492 24.3807H130.809ZM139.304 16.4545V31H136.229V16.4545H139.304ZM155.351 23.7273C155.351 25.3134 155.05 26.6629 154.449 27.7756C153.852 28.8883 153.038 29.7382 152.006 30.3253C150.978 30.9077 149.823 31.1989 148.54 31.1989C147.247 31.1989 146.087 30.9053 145.06 30.3182C144.032 29.7311 143.22 28.8812 142.624 27.7685C142.027 26.6558 141.729 25.3087 141.729 23.7273C141.729 22.1411 142.027 20.7917 142.624 19.679C143.22 18.5663 144.032 17.7187 145.06 17.1364C146.087 16.5492 147.247 16.2557 148.54 16.2557C149.823 16.2557 150.978 16.5492 152.006 17.1364C153.038 17.7187 153.852 18.5663 154.449 19.679C155.05 20.7917 155.351 22.1411 155.351 23.7273ZM152.233 23.7273C152.233 22.6998 152.079 21.8333 151.771 21.1278C151.468 20.4223 151.04 19.8873 150.486 19.5227C149.932 19.1581 149.283 18.9759 148.54 18.9759C147.797 18.9759 147.148 19.1581 146.594 19.5227C146.04 19.8873 145.609 20.4223 145.301 21.1278C144.998 21.8333 144.847 22.6998 144.847 23.7273C144.847 24.7547 144.998 25.6212 145.301 26.3267C145.609 27.0322 146.04 27.5672 146.594 27.9318C147.148 28.2964 147.797 28.4787 148.54 28.4787C149.283 28.4787 149.932 28.2964 150.486 27.9318C151.04 27.5672 151.468 27.0322 151.771 26.3267C152.079 25.6212 152.233 24.7547 152.233 23.7273Z" fill="#3A3541" fill-opacity="0.87"/>
<path d="M228 19.8333C225.7 19.8333 223.833 21.7 223.833 24C223.833 26.3 225.7 28.1667 228 28.1667C230.3 28.1667 232.167 26.3 232.167 24C232.167 21.7 230.3 19.8333 228 19.8333ZM228 15.6667C223.4 15.6667 219.667 19.4 219.667 24C219.667 28.6 223.4 32.3333 228 32.3333C232.6 32.3333 236.333 28.6 236.333 24C236.333 19.4 232.6 15.6667 228 15.6667ZM228 30.6667C224.317 30.6667 221.333 27.6833 221.333 24C221.333 20.3167 224.317 17.3333 228 17.3333C231.683 17.3333 234.667 20.3167 234.667 24C234.667 27.6833 231.683 30.6667 228 30.6667Z" fill="#3A3541" fill-opacity="0.87"/>
</svg>
